<svg width="130" height="42" viewBox="0 0 130 42" fill="none" xmlns="http://www.w3.org/2000/svg">
<path d="M22.75 3.5L5.25 24.5H21L19.25 38.5L36.75 17.5H21L22.75 3.5Z" stroke="#111111" stroke-width="2" stroke-linecap="round" stroke-linejoin="round"/>
<path d="M55.6268 17.4258H58.2891C58.2369 14.8455 56.0369 13.0185 52.7855 13.0185C49.5788 13.0185 47.1701 14.8232 47.1776 17.5227C47.1776 19.7152 48.7362 20.9755 51.2493 21.6243L52.9869 22.0717C54.6349 22.4893 55.7237 23.0039 55.7312 24.1896C55.7237 25.4947 54.4858 26.3672 52.6811 26.3672C50.951 26.3672 49.6087 25.5916 49.4968 23.9883H46.7749C46.8867 27.0234 49.1463 28.7312 52.7035 28.7312C56.3651 28.7312 58.4904 26.9041 58.4979 24.212C58.4904 21.5646 56.3054 20.3565 54.0085 19.8121L52.5767 19.4542C51.3239 19.1559 49.9666 18.6264 49.9815 17.3512C49.989 16.2028 51.0181 15.3601 52.7482 15.3601C54.3963 15.3601 55.4851 16.1282 55.6268 17.4258ZM63.2091 28.5H66.028L68.1757 20.7592H68.3323L70.48 28.5H73.2915L76.5354 17.0455H73.7762L71.7925 25.0547H71.6807L69.6224 17.0455H66.9005L64.8422 25.0994H64.7378L62.7243 17.0455H59.9726L63.2091 28.5ZM78.4203 28.5H81.1199V17.0455H78.4203V28.5ZM79.7775 15.4197C80.6351 15.4197 81.3361 14.7635 81.3361 13.9581C81.3361 13.1452 80.6351 12.489 79.7775 12.489C78.9125 12.489 78.2115 13.1452 78.2115 13.9581C78.2115 14.7635 78.9125 15.4197 79.7775 15.4197ZM92.9491 20.0732C92.5763 18.1342 91.0251 16.8963 88.3405 16.8963C85.5812 16.8963 83.702 18.2536 83.7094 20.3714C83.702 22.0419 84.7311 23.1456 86.931 23.6005L88.8849 24.0107C89.9363 24.2418 90.4285 24.6669 90.4285 25.3157C90.4285 26.0987 89.5784 26.6879 88.2957 26.6879C87.0578 26.6879 86.2524 26.1509 86.0212 25.1218L83.3888 25.3754C83.7243 27.4783 85.4917 28.7237 88.3032 28.7237C91.1668 28.7237 93.1878 27.2397 93.1952 25.0696C93.1878 23.4364 92.1363 22.4371 89.9736 21.9673L88.0198 21.5497C86.8564 21.2887 86.3941 20.886 86.4015 20.2223C86.3941 19.4467 87.2517 18.9098 88.3778 18.9098C89.6231 18.9098 90.2794 19.5884 90.4882 20.3416L92.9491 20.0732ZM104.475 20.0732C104.102 18.1342 102.551 16.8963 99.8659 16.8963C97.1066 16.8963 95.2274 18.2536 95.2348 20.3714C95.2274 22.0419 96.2565 23.1456 98.4564 23.6005L100.41 24.0107C101.462 24.2418 101.954 24.6669 101.954 25.3157C101.954 26.0987 101.104 26.6879 99.8211 26.6879C98.5832 26.6879 97.7778 26.1509 97.5466 25.1218L94.9142 25.3754C95.2497 27.4783 97.0171 28.7237 99.8286 28.7237C102.692 28.7237 104.713 27.2397 104.721 25.0696C104.713 23.4364 103.662 22.4371 101.499 21.9673L99.5452 21.5497C98.3818 21.2887 97.9195 20.886 97.9269 20.2223C97.9195 19.4467 98.7771 18.9098 99.9031 18.9098C101.149 18.9098 101.805 19.5884 102.014 20.3416L104.475 20.0732ZM108.625 32.7955C110.728 32.7955 111.943 31.7141 112.592 29.8871L117.193 17.0604L114.307 17.0455L111.66 25.696H111.54L108.9 17.0455H106.037L110.191 28.7386L109.959 29.3576C109.46 30.6626 108.669 30.7521 107.491 30.4091L106.865 32.5121C107.23 32.6612 107.886 32.7955 108.625 32.7955Z" fill="black"/>
</svg>
